<svg xmlns="http://www.w3.org/2000/svg" enable-background="new 0 0 48 48" viewBox="0 0 48 48"><path d="M28,19c0.55,0,1-0.45,1-1s-0.45-1-1-1h-3v-1c0-0.55-0.45-1-1-1s-1,0.45-1,1v1c-2.21,0-4,1.79-4,4s1.79,4,4,4v4h-3
		c-0.55,0-1,0.45-1,1s0.45,1,1,1h3v1c0,0.55,0.45,1,1,1s1-0.45,1-1v-1c2.21,0,4-1.79,4-4s-1.79-4-4-4v-4H28z M23,23
		c-1.1,0-2-0.9-2-2s0.9-2,2-2V23z M27,27c0,1.1-0.9,2-2,2v-4C26.1,25,27,25.9,27,27z"/><path d="M24,3C12.42,3,3,12.42,3,24s9.42,21,21,21c11.58,0,21-9.42,21-21S35.58,3,24,3z M24,43C13.52,43,5,34.48,5,24S13.52,5,24,5
		s19,8.52,19,19S34.48,43,24,43z"/><path d="M24,7C14.63,7,7,14.63,7,24s7.63,17,17,17s17-7.63,17-17S33.37,7,24,7z M24,39c-8.27,0-15-6.73-15-15S15.73,9,24,9
		c8.27,0,15,6.73,15,15S32.27,39,24,39z"/></svg>